<svg fill="none" height="15" viewBox="0 0 15 15" width="15" xmlns="http://www.w3.org/2000/svg"><path clip-rule="evenodd" d="m7.5 14c3.5899 0 6.5-2.9101 6.5-6.5 0-3.58985-2.9101-6.5-6.5-6.5-3.58985 0-6.5 2.91015-6.5 6.5 0 3.5899 2.91015 6.5 6.5 6.5zm0-1c3.0376 0 5.5-2.4624 5.5-5.5 0-3.03757-2.4624-5.5-5.5-5.5-3.03757 0-5.5 2.46243-5.5 5.5 0 3.0376 2.46243 5.5 5.5 5.5zm-.5-7c0 .55228-.44772 1-1 1s-1-.44772-1-1 .44772-1 1-1 1 .44772 1 1zm2 1c.55229 0 1-.44772 1-1s-.44771-1-1-1c-.55228 0-1 .44772-1 1s.44772 1 1 1zm-4.5 1c-.27614 0-.5.22386-.5.5h.5c-.5 0-.5.00026-.5.00052v.0006l.00001.00139.00002.00363.00013.01053c.00013.00845.00039.01974.00085.03368.00093.02787.00271.06643.00612.11418.00681.09532.02018.22824.04655.38642.05233.314.15793.7403.37411 1.17265.21715.4343.55074.8838 1.06049 1.2237.51287.3419 1.17423.5527 2.01172.5527s1.49885-.2108 2.01172-.5527c.50978-.3399.84338-.7894 1.06048-1.2237.2162-.43235.3218-.85865.3741-1.17265.0264-.15818.0398-.2911.0466-.38642.0034-.04775.0052-.08631.0061-.11418.0005-.01394.0007-.02523.0008-.03368l.0002-.01053v-.00363-.00139-.0006c0-.00026 0-.00052-.5-.00052h.5c0-.27614-.2239-.5-.5-.5zm.82221 1.77639c-.13562-.27124-.21515-.54691-.26128-.77639h4.87815c-.04614.22948-.12567.50515-.26129.77639-.15785.31571-.38676.61621-.72076.83881-.33088.2206-.79452.3848-1.45703.3848s-1.12615-.1642-1.45703-.3848c-.334-.2226-.56291-.5231-.72076-.83881z" fill="#151515" fill-rule="evenodd"/></svg>